<mxfile host="app.diagrams.net" modified="2024-04-08T14:05:36.515Z" agent="Mozilla/5.0 (Windows NT 10.0; Win64; x64) AppleWebKit/537.36 (KHTML, like Gecko) Chrome/120.0.0.0 YaBrowser/24.1.0.0 Safari/537.36" version="24.2.1" etag="aAy5-AUFyrS0k1tqfhuD" type="github">
  <diagram name="Страница — 1" id="0l4yny-128cJ6DtqA-DC">
    <mxGraphModel>
      <root>
        <mxCell id="0" />
        <mxCell id="1" parent="0" />
      </root>
    </mxGraphModel>
  </diagram>
</mxfile>
